# xmcd CD database file
#
# Track frame offsets:
#	150
#	20772
#	43186
#	61728
#	88846
#	105564
#	128938
#	153656
#	180742
#	196596
#	226914
#	245936
#	273086
#	288812
#
# Disc length: 4375 seconds
#
# Revision: 0
# Processed by: cddbd v1.5.1PL0 Copyright (c) Steve Scherf et al.
# Submitted via: CDex 1.51
#
DISCID=c011150e
DTITLE=Chicago Brother and Sister Blues Band - Volume 3
DYEAR=1900
DGENRE=Blues
TTITLE0=Way Across Town
TTITLE1=Chains Of Love
TTITLE2=Mixed Up
TTITLE3=Poor Boy
TTITLE4=Lindy Lou
TTITLE5=Chicken Shack
TTITLE6=Treat Your Daughter Mean
TTITLE7=Kansas City
TTITLE8=24 Hours
TTITLE9=Ode To Billy Joe
TTITLE10=Let The Good Times Roll
TTITLE11=Don't Let The Devil Ride
TTITLE12=Turn Your Lamp Down Low
TTITLE13=Wild Fire
EXTD=
EXTT0=
EXTT1=
EXTT2=
EXTT3=
EXTT4=
EXTT5=
EXTT6=
EXTT7=
EXTT8=
EXTT9=
EXTT10=
EXTT11=
EXTT12=
EXTT13=
PLAYORDER=
